Coordinates
version=1
nRows=13
nColumns=34
inDegrees=yes

Units are S.I. units (second, meters, Newtons, ...)
If the header above contains a line with 'inDegrees', this indicates whether rotational values are in degrees (yes) or radians (no).

endheader
time	pelvis_tilt	pelvis_list	pelvis_rotation	pelvis_tx	pelvis_ty	pelvis_tz	hip_flexion_r	hip_adduction_r	hip_rotation_r	knee_angle_r	ankle_angle_r	subtalar_angle_r	mtp_angle_r	hip_flexion_l	hip_adduction_l	hip_rotation_l	knee_angle_l	ankle_angle_l	subtalar_angle_l	mtp_angle_l	lumbar_extension	lumbar_bending	lumbar_rotation	arm_flex_r	arm_add_r	arm_rot_r	elbow_flex_r	pro_sup_r	arm_flex_l	arm_add_l	arm_rot_l	elbow_flex_l	pro_sup_l
      7.70000000	     -5.39912225	      1.01585369	    184.22542109	      1.95064593	      1.00239942	     -0.55496620	     38.32653599	     -0.64980540	      0.40507321	    114.66769948	      6.67110799	     -9.87596516	      0.00000000	     10.82082177	      3.24940993	      0.46574778	     41.08517462	      5.21598170	    -23.88016790	      0.00000000	    -23.11826911	     -0.07101467	    -10.67466399	    -24.19216966	    -15.62563849	     -4.01177096	     98.64850568	     88.50926276	     22.61170502	    -28.18580494	     10.24182362	    102.10129247	     81.18367392
      7.70833330	     -5.39863183	      1.34530555	    183.98247453	      1.95451384	      1.01120255	     -0.55391816	     39.85651211	     -0.56046673	     -0.50823066	    110.67642413	      5.81298934	    -12.43506026	      0.00000000	      7.93660614	      2.59562599	     -0.05195526	     39.01578923	      4.54857804	    -22.70451645	      0.00000000	    -23.30027914	      0.54332178	    -12.64229493	    -24.45363815	    -15.94231729	     -3.19420081	     99.48062789	     89.44230944	     20.53644482	    -27.73920092	     10.39455122	    105.97172281	     81.44210270
      7.71666670	     -4.83235875	      1.78529894	    183.46337309	      1.95765777	      1.01306130	     -0.55341947	     41.82671562	     -0.19997800	     -1.26570004	    106.74223356	      5.39463394	    -14.83738657	      0.00000000	      5.95613441	      1.91094518	     -0.71944338	     37.60243626	      4.24937619	    -21.53292666	      0.00000000	    -22.70964042	      1.15048832	    -14.50613453	    -24.23106847	    -16.88064078	     -1.75163264	     99.96071466	     91.11503266	     18.27141870	    -26.97527955	     10.85424086	    110.31249441	     82.23240374
      7.72500000	     -4.01754783	      2.20785701	    182.96412753	      1.96004361	      1.01677139	     -0.55312781	     43.64084815	      0.14953923	     -2.04404661	    102.25918201	      5.29707256	    -17.23886066	      0.00000000	      4.14228452	      1.32062481	     -1.15854094	     36.07251642	      3.12834121	    -20.59029792	      0.00000000	    -21.60273811	      1.66761275	    -15.64899061	    -24.87157667	    -17.39406755	     -1.12638724	    101.26361662	     91.52597117	     17.44685515	    -26.37125957	     13.62379298	    113.39508686	     82.67969867
      7.73333330	     -3.24969602	      2.46067936	    182.50865819	      1.96148653	      1.02119325	     -0.55338126	     45.26083335	      0.42946715	     -2.68043805	     97.79633904	      5.38534976	    -19.25642576	      0.00000000	      2.29011223	      0.85527098	     -1.59958062	     34.66109588	      2.16265948	    -19.42946027	      0.00000000	    -20.60796864	      1.92341235	    -16.86167207	    -25.65922516	    -17.95856080	     -0.59751995	    102.60662678	     91.87055376	     16.87099412	    -26.01182338	     16.19887610	    115.78755955	     83.08647054
      7.74166670	     -2.72020350	      2.62881830	    182.14894015	      1.96198057	      1.03177174	     -0.55370330	     46.22117223	      0.66179561	     -3.38889258	     92.92562403	      5.48189557	    -21.40836588	      0.00000000	     -0.08737213	      0.48186448	     -1.94579145	     32.51903004	      0.98388630	    -18.02879150	      0.00000000	    -19.76247156	      2.17501036	    -18.10360429	    -26.02727244	    -18.18785640	     -0.14988654	    103.28632686	     92.23869141	     16.63175389	    -25.93582764	     18.58371958	    116.83350776	     83.53136502
      7.75000000	     -2.14291977	      2.59744211	    181.72956295	      1.96099636	      1.03795579	     -0.55430807	     46.90646123	      0.85622615	     -3.76497120	     87.77601838	      5.79314480	    -22.87128338	      0.00000000	     -2.48173832	      0.30658112	     -2.38668708	     30.38754863	     -0.57697054	    -16.69623650	      0.00000000	    -18.83090664	      2.14839976	    -19.19583374	    -26.51224099	    -18.26044316	      0.16430940	    103.64626116	     92.56231075	     16.43445947	    -25.90968938	     20.26607837	    116.65508049	     83.90146790
      7.75833330	     -1.71537837	      2.72709366	    181.53086861	      1.95887424	      1.04732378	     -0.55445425	     46.64450799	      1.23051619	     -4.27916454	     81.40328245	      5.21921293	    -24.17436134	      0.00000000	     -5.22863917	     -0.06136907	     -2.72717477	     27.74971737	     -2.87204041	    -15.09239828	      0.00000000	    -17.91776394	      2.26799206	    -20.09004278	    -26.99820131	    -18.21434772	      0.44722341	    103.34688478	     93.03276644	     16.44053136	    -25.71513702	     21.60666713	    114.64390496	     84.37174163
      7.76666670	     -1.07084440	      2.61215431	    181.26626324	      1.95564163	      1.05383705	     -0.55458196	     46.62092486	      1.54436330	     -4.40043800	     75.09208287	      5.48131451	    -23.74767257	      0.00000000	     -7.43948765	     -0.16733888	     -3.15303074	     25.77325077	     -5.95801559	    -13.72901863	      0.00000000	    -16.79423885	      2.20742014	    -21.03981735	    -27.63754723	    -17.96720484	      0.31213095	    103.01996081	     93.32836325	     15.78352292	    -25.80835574	     22.10450737	    111.91248840	     84.61349205
      7.77500000	     -0.58221181	      2.70277048	    181.29337658	      1.95219936	      1.06583211	     -0.55404631	     45.81404746	      2.04644001	     -4.63994156	     67.45906789	      4.62357305	    -22.41159880	      0.00000000	     -9.64022112	     -0.51420597	     -3.50570793	     23.64221199	    -10.02611771	    -12.31297412	      0.00000000	    -15.75127838	      2.41346378	    -22.09978814	    -28.28889635	    -17.74548136	      0.06966623	    102.42095150	     93.55431254	     15.15204572	    -25.71460371	     21.98367609	    108.92209631	     84.71655535
      7.78333330	      0.24191289	      2.41059831	    181.32532417	      1.94878563	      1.06740952	     -0.55365676	     45.92023320	      2.31104588	     -4.57608087	     60.23691828	      4.73308822	    -18.79857948	      0.00000000	    -11.05405035	     -0.42119205	     -3.84271688	     22.34789262	    -14.04462933	    -11.20156791	      0.00000000	    -14.36522437	      2.21305957	    -23.13108728	    -29.07620049	    -17.33132257	     -0.35718182	    101.93620780	     93.77645553	     14.68533358	    -25.46153301	     21.06505331	    106.17901050	     84.74273517
      7.79166670	      0.93161887	      1.84480173	    181.66556547	      1.94615368	      1.07509708	     -0.55308683	     45.70439019	      2.17761765	     -4.69248002	     52.27083482	      1.71578529	    -14.67509527	      0.00000000	    -11.93374209	     -0.12506670	     -3.77406984	     21.68904526	    -18.47449562	    -10.56946729	      0.00000000	    -13.10373635	      1.76039300	    -24.41316002	    -29.73166413	    -16.73555015	     -0.83730949	    101.29540327	     93.98988344	     14.34452147	    -25.14705190	     19.59377803	    103.21074648	     84.66991156
      7.80000000	      1.09023946	      0.51729474	    182.50999515	      1.94353659	      1.08187430	     -0.55226027	     44.08976625	      1.18251246	     -4.43646023	     43.02432023	     -2.75170833	    -10.06060028	      0.00000000	    -12.89531047	      0.82970089	     -3.15264048	     22.06828123	    -20.15670429	    -10.72003806	      0.00000000	    -12.26600909	      0.28413181	    -26.17371919	    -30.44873927	    -15.90311809	     -1.20486856	    101.01080053	     94.17976692	     14.18749944	    -25.11518878	     18.04153086	     99.97607660	     84.51089501
